# xmcd CD database file
#
# Track frame offsets:
#	150
#	17720
#	32075
#	45275
#	59050
#	73150
#	86295
#	101150
#	116250
#	131575
#	143595
#	148625
#	150420
#	165195
#	183875
#	198425
#	214762
#	228850
#	247425
#	260025
#	278542
#	294185
#	308520
#
# Disc length: 4327 seconds
#
# Revision: 0
# Processed by: cddbd v1.5PL3 Copyright (c) Steve Scherf et al.
# Submitted via: CDex 1.51
#
DISCID=3c10e517
DTITLE=Lobo - Of A Simple Man
DYEAR=1972
DGENRE=Country
TTITLE0=Intro - Me And You And A Doc Named Boo
TTITLE1=The Albatross
TTITLE2=We'll Make It ---- I Know We Will
TTITLE3=A Little Different
TTITLE4=Reaching Out For Someone
TTITLE5=She Didn't Do Magic
TTITLE6=Little Joe (They're Out To Get Ya)
TTITLE7=I'm The Only One
TTITLE8=We'll Be One By Two Today
TTITLE9=Another Hill To Climb
TTITLE10=Reprise
TTITLE11=Intro
TTITLE12=There Ain't No Way
TTITLE13=A Big Red Kite
TTITLE14=Recycle Sally
TTITLE15=Don't Expect Me To Be Your Friend
TTITLE16=A Simple Man
TTITLE17=I'o Love You To Want Me
TTITLE18=Let Me Down Easy
TTITLE19=Pee-Ro Juan Valdez Sam Quixote
TTITLE20=Running Deer
TTITLE21=Gypsy And The Midnight Ghost
TTITLE22=Am I True To Myself
EXTD=YEAR: 1972
EXTT0=
EXTT1=
EXTT2=
EXTT3=
EXTT4=
EXTT5=
EXTT6=
EXTT7=
EXTT8=
EXTT9=
EXTT10=
EXTT11=
EXTT12=
EXTT13=
EXTT14=
EXTT15=
EXTT16=
EXTT17=
EXTT18=
EXTT19=
EXTT20=
EXTT21=
EXTT22=
PLAYORDER=
